<?xml version="1.0" encoding="utf-8"?>
<!DOCTYPE svg PUBLIC "-//W3C//DTD SVG 20010904//EN" "http://www.w3.org/TR/2001/REC-SVG-20010904/DTD/svg10.dtd">
<svg version="1.0" xmlns="http://www.w3.org/2000/svg" width="50pt" height="50pt" viewBox="0 0 50 50" style="" preserveAspectRatio="xMidYMid meet">
<g fill="#4CC1DEFF" stroke="#4CC1DEFF">
<path d="M 6.407 18.689 C 5.415 21.335 4.130 23.838 3.551 24.250 C 2.816 24.774 2.816 25.226 3.551 25.750 C 4.130 26.163 5.415 28.665 6.407 31.311 C 8.553 37.031 9.507 37.159 7.549 31.464 C 6.800 29.287 6.397 27.167 6.653 26.753 C 6.909 26.339 10.466 26.000 14.559 26.000 C 18.853 26.000 22.000 25.577 22.000 25.000 C 22.000 24.423 18.853 24.000 14.559 24.000 C 10.466 24.000 6.909 23.661 6.653 23.247 C 6.397 22.833 6.800 20.713 7.549 18.536 C 9.507 12.841 8.553 12.969 6.407 18.689 "/></g>
<g fill="#4CC1DEFF" stroke="#4CC1DEFF">
<path d="M 24.000 35.441 C 24.000 39.534 23.661 43.091 23.247 43.347 C 22.833 43.603 20.713 43.200 18.536 42.451 C 12.841 40.493 12.969 41.447 18.689 43.593 C 21.335 44.585 23.797 45.831 24.159 46.361 C 24.546 46.926 25.505 46.638 26.481 45.662 C 27.395 44.748 28.898 43.984 29.821 43.965 C 30.745 43.945 32.625 43.239 34.000 42.395 C 35.695 41.355 35.856 41.079 34.500 41.535 C 29.209 43.316 27.103 43.770 26.575 43.242 C 26.259 42.926 26.000 39.367 26.000 35.333 C 26.000 31.111 25.576 28.000 25.000 28.000 C 24.423 28.000 24.000 31.147 24.000 35.441 "/></g>
<g fill="#4CC1DEFF" stroke="#4CC1DEFF">
<path d="M 41.535 15.500 C 43.316 20.791 43.770 22.897 43.242 23.425 C 42.926 23.741 39.367 24.000 35.333 24.000 C 31.111 24.000 28.000 24.424 28.000 25.000 C 28.000 25.576 31.111 26.000 35.333 26.000 C 39.367 26.000 42.926 26.259 43.242 26.575 C 43.770 27.103 43.316 29.209 41.535 34.500 C 41.079 35.856 41.355 35.695 42.395 34.000 C 43.239 32.625 43.945 30.745 43.965 29.821 C 43.984 28.898 44.707 27.436 45.571 26.571 C 47.000 25.143 47.000 24.857 45.571 23.429 C 44.707 22.564 43.984 21.102 43.965 20.179 C 43.945 19.255 43.239 17.375 42.395 16.000 C 41.355 14.305 41.079 14.144 41.535 15.500 "/></g>
<g fill="#4CC1DEFF" stroke="#4CC1DEFF">
<path d="M 24.000 3.961 C 24.000 4.490 22.313 5.390 20.250 5.961 C 18.188 6.532 15.825 7.492 15.000 8.094 C 13.785 8.981 13.880 9.056 15.500 8.490 C 20.466 6.756 22.892 6.226 23.425 6.758 C 23.741 7.074 24.000 10.633 24.000 14.667 C 24.000 18.889 24.424 22.000 25.000 22.000 C 25.576 22.000 26.000 18.889 26.000 14.667 C 26.000 10.633 26.259 7.074 26.575 6.758 C 27.108 6.226 29.534 6.756 34.500 8.490 C 36.120 9.056 36.215 8.981 35.000 8.094 C 34.175 7.492 31.813 6.532 29.750 5.961 C 27.688 5.390 26.000 4.490 26.000 3.961 C 26.000 3.433 25.550 3.000 25.000 3.000 C 24.450 3.000 24.000 3.433 24.000 3.961 "/></g>
</svg>
